<svg enable-background="new 0 0 1004.3 415.2" viewBox="0 0 1004.3 415.2" xmlns="http://www.w3.org/2000/svg"><path d="m144.5 190.7v-10.6l8.1.5 33.1 1.9v-108.7l-184.4-48.1v262.4l143.2-18.5z" fill="#d72c44"/><path d="m179.5 285.2-41.4 9.2v57.7l41.4-13z" fill="#a7cf4d"/><path d="m214.5 193.2-28.8-1-33.1-1.2v77.6 15.5l33-6.6v28l44-9.8v-65.3-36.6z" fill="#739acc"/><g fill="#676767"><path d="m273.7 71.9h41.4c37.5 0 62 22.3 62 60.6s-24.5 60.9-62 60.9h-41.4zm40.3 102.5c24.7 0 40.4-14.6 40.4-41.9 0-27-16.1-41.6-40.4-41.6h-18.1v83.5z"/><path d="m394.3 106.1h21.7v87.3h-21.7z"/><path d="m469.6 210.9c13.4 0 24.7-5.6 24.7-21.2v-5.1c0-2.1.3-4.6.3-4.6h-.3c-5.1 7.7-12.7 11.8-24.3 11.8-25 0-39.2-20.2-39.2-44.2s13.5-43.5 38.7-43.5c19 0 25.8 11.1 25.8 11.1h.5s-.2-1-.2-2.4v-6.7h20.4v82c0 30-23.3 41.3-46 41.3-11 0-22.6-3.1-31-7.5l6.5-16.6c0-.1 11 5.6 24.1 5.6zm25.2-63.2c0-19.9-9.8-25.2-21.6-25.2-13.2 0-20.5 9.6-20.5 24.3 0 15.2 7.9 26.5 21.9 26.5 10.4.1 20.2-5.9 20.2-25.6z"/><path d="m535.8 106.1h21.7v87.3h-21.7z"/><path d="m580.6 124.8h-11.3v-17.3h11.8v-25.2h21.2v25.2h19.9v17.3h-19.9v33.9c0 14.4 11.3 16.4 17.3 16.4 2.4 0 3.9-.3 3.9-.3v19s-2.6.5-6.7.5c-12.2 0-36.3-3.6-36.3-32.9z"/><path d="m682.9 138.7h2.9v-1.2c0-11.5-7.2-15.4-16.8-15.4-12.5 0-24 8.4-24 8.4l-8.2-15.6s13.5-10.8 34.2-10.8c22.9 0 36.3 12.7 36.3 34.8v54.6h-20v-7.2c0-3.4.3-6.2.3-6.2h-.3c.2 0-6.7 15.4-26.5 15.4-15.6 0-29.6-9.8-29.6-27.2 0-27.8 37.5-29.6 51.7-29.6zm-16.6 39.8c11.5 0 19.7-12.3 19.7-22.9v-2.1h-3.8c-11.1 0-29.1 1.5-29.1 13.7 0 5.9 4.3 11.3 13.2 11.3z"/><path d="m725.5 71.9h21.6v91.1c0 9.6 3.3 12 8.9 12 1.7 0 3.3-.2 3.3-.2v19s-3.3.5-6.8.5c-12 0-26.9-3.1-26.9-28.1z"/><circle cx="405.1" cy="82" r="13.9"/><circle cx="546.7" cy="82" r="13.9"/><path d="m273.7 217.7h46.9c22.8 0 38.7 15.9 38.7 39.5s-15.9 40.1-38.7 40.1h-24.8v41.9h-22.1zm42.8 60.4c12.8 0 20.4-8.2 20.4-20.9 0-12.5-7.5-20.5-20-20.5h-21.1v41.4z"/><path d="m370.5 251.9h20.9v15.1c0 3.3-.3 6.2-.3 6.2h.3c3.9-12.5 14.4-22.4 27.7-22.4 2.1 0 3.9.3 3.9.3v21.4s-2.2-.3-5.1-.3c-9.2 0-19.7 5.3-23.8 18.3-1.4 4.3-1.9 9.1-1.9 14.2v34.6h-21.7z"/><path d="m475.1 249.9c26.7 0 48.1 19 48.1 45.7 0 26.9-21.4 45.7-47.9 45.7-26.7 0-48.1-18.8-48.1-45.7-.1-26.7 21.3-45.7 47.9-45.7zm.1 72.9c14 0 25.8-11 25.8-27.2 0-16.1-11.8-27.2-25.8-27.2-14.2 0-26 11.1-26 27.2 0 16.2 11.8 27.2 26 27.2z"/><path d="m537.5 251.9h20.9v10.1c0 3.3-.3 6-.3 6h.3c4.3-8.6 14.7-18.1 28.4-18.1 13.4 0 21.9 6.2 25.5 18h.3c4.8-9.4 16.1-18 29.8-18 18.1 0 28.6 10.3 28.6 33.2v56.1h-21.7v-52c0-9.9-1.9-17.5-12-17.5-11.1 0-18.5 8.9-21.1 19.9-.9 3.4-1 7.2-1 11.3v38.3h-21.7v-52c0-9.4-1.5-17.5-11.8-17.5-11.3 0-18.7 8.9-21.4 20-.9 3.3-1 7.2-1 11.1v38.3h-21.7z"/><path d="m690.3 251.9h21.7v87.3h-21.7z"/><path d="m735.1 313.2s9.6 9.6 23.8 9.6c6.2 0 11.5-2.7 11.5-7.9 0-13-42.5-11.3-42.5-39.4 0-16.3 14.6-25.7 33.4-25.7 19.7 0 29.3 9.9 29.3 9.9l-8 16.1s-8-7.5-21.4-7.5c-5.6 0-11.1 2.4-11.1 7.9 0 12.3 42.5 10.8 42.5 38.9 0 14.6-12.7 26.2-33.4 26.2-21.7 0-33.9-12.8-33.9-12.8z"/><path d="m844.5 249.9c25.2 0 38.7 18.3 38.7 41.4 0 2.6-.5 8.4-.5 8.4h-60.3c1.4 15.2 13.2 23.1 26.2 23.1 14 0 25.2-9.6 25.2-9.6l8.4 15.6s-13.4 12.5-35.1 12.5c-28.9 0-46.9-20.9-46.9-45.7 0-26.9 18.3-45.7 44.3-45.7zm16.8 34.9c-.3-11.8-7.7-18.1-17.3-18.1-11.1 0-18.8 6.8-20.9 18.1z"/><path d="m902.4 249.5c7 0 12.7 5.7 12.7 12.9 0 7.1-5.6 12.9-12.7 12.9-6.9 0-12.5-5.8-12.5-12.9 0-7.2 5.6-12.9 12.5-12.9zm0 22.9c5.4 0 9.6-4.4 9.6-10.1 0-5.6-4.1-10-9.6-10-5.3 0-9.4 4.4-9.4 10 0 5.7 4.1 10.1 9.4 10.1zm-4.4-16.6h5.3c2.5 0 4.2 1.6 4.2 4.1 0 2-1.4 3.1-2.3 3.3v.1s.1.1.5.7l2.4 4.6h-3.3l-2.2-4.7h-1.6v4.7h-3zm4.7 6c1.2 0 1.9-.7 1.9-1.9s-.7-1.9-1.8-1.9h-1.8v3.8z"/><circle cx="701.2" cy="227.1" r="13.9"/></g></svg>